<?xml version="1.0" encoding="UTF-8"?>
<svg id="Layer_1" data-name="Layer 1" xmlns="http://www.w3.org/2000/svg" viewBox="0 0 720 408">
  <defs>
    <style>
      .cls-1 {
        fill: #fff;
      }
    </style>
  </defs>
  <path class="cls-1" d="M648,286.58v38.84c0,8.05,6.53,14.58,14.58,14.58h43.07c7.93,0,14.35,6.42,14.35,14.35v39.3c0,7.93-6.42,14.35-14.35,14.35h-187.3c-7.93,0-14.35-6.42-14.35-14.35v-39.3c0-7.93,6.42-14.35,14.35-14.35h43.28c7.94,0,14.37-6.43,14.37-14.37v-39.36c0-7.88,6.39-14.27,14.27-14.27h43.15c8.05,0,14.58-6.53,14.58-14.58v-39.05c0-7.94-6.43-14.37-14.37-14.37h-115.05c-8.05,0-14.58,6.53-14.58,14.58v38.73c0,8.11-6.58,14.69-14.69,14.69h-42.86c-7.98,0-14.45,6.47-14.45,14.45v107.31c0,7.86-6.38,14.24-14.24,14.24h-43.52c-7.86,0-14.24-6.38-14.24-14.24v-107.72c0-7.75-6.29-14.04-14.04-14.04h-43.38c-8.05,0-14.58,6.53-14.58,14.58v107.07c0,7.93-6.42,14.35-14.35,14.35h-43.3c-7.93,0-14.35-6.42-14.35-14.35v-107.3c0-7.93,6.42-14.35,14.35-14.35h43.07c8.05,0,14.58-6.53,14.58-14.58v-38.84c0-8.05-6.53-14.58-14.58-14.58h-42.99c-7.97,0-14.43-6.46-14.43-14.43v-38.99c0-8.05-6.53-14.58-14.58-14.58h-43.16c-7.88,0-14.26-6.38-14.26-14.26v-39.16c0-8.05-6.53-14.58-14.58-14.58h-42.84c-8.05,0-14.58,6.53-14.58,14.58v107.21c0,7.85,6.36,14.21,14.21,14.21h43.75c7.75,0,14.04,6.29,14.04,14.04v39.92c0,7.75-6.29,14.04-14.04,14.04h-43.75c-7.85,0-14.21,6.36-14.21,14.21v107.59c0,7.84-6.36,14.2-14.2,14.2H14.2c-7.84,0-14.2-6.36-14.2-14.2V82.68c0-8.11,6.57-14.68,14.68-14.68h45.72c6.62-1.37,11.6-7.24,11.6-14.27V14.34c0-7.92,6.42-14.34,14.34-14.34h43.32c7.92,0,14.34,6.42,14.34,14.34v39.39c0,7.03,4.98,12.9,11.6,14.27h46.14c7.88,0,14.26,6.38,14.26,14.26v39.16c0,8.05,6.53,14.58,14.58,14.58h42.99c7.97,0,14.43,6.46,14.43,14.43v40.28c0,5.92,3.53,11.01,8.6,13.29h49c7.96,0,14.4-6.44,14.4-14.4V14.61c0-8.07,6.54-14.61,14.61-14.61h42.78c8.07,0,14.61,6.54,14.61,14.61v175.15c0,7.87,6.37,14.24,14.24,14.24h49.16c5.07-2.28,8.6-7.37,8.6-13.29v-40.1c0-8.07,6.54-14.61,14.61-14.61h186.78c8.07,0,14.61,6.54,14.61,14.61v106.78c0,8.07-6.54,14.61-14.61,14.61h-42.81c-8.05,0-14.58,6.53-14.58,14.58Z"/>
</svg>